<mxfile host="app.diagrams.net" agent="Mozilla/5.0 (X11; Linux x86_64) AppleWebKit/537.36 (KHTML, like Gecko) Chrome/131.0.0.0 Safari/537.36" version="26.0.16">
  <diagram name="ページ1" id="2hg4AuzDSONA4Mp5c8Wv">
    <mxGraphModel dx="875" dy="504" grid="1" gridSize="10" guides="1" tooltips="1" connect="1" arrows="1" fold="1" page="1" pageScale="1" pageWidth="827" pageHeight="1169" math="1" shadow="0">
      <root>
        <mxCell id="0" />
        <mxCell id="1" parent="0" />
        <mxCell id="G5l_VkCmDjPcZDWjGctJ-14" style="edgeStyle=orthogonalEdgeStyle;rounded=0;orthogonalLoop=1;jettySize=auto;html=1;exitX=1;exitY=0.5;exitDx=0;exitDy=0;entryX=0;entryY=0.5;entryDx=0;entryDy=0;" edge="1" parent="1" source="G5l_VkCmDjPcZDWjGctJ-1" target="G5l_VkCmDjPcZDWjGctJ-2">
          <mxGeometry relative="1" as="geometry" />
        </mxCell>
        <mxCell id="G5l_VkCmDjPcZDWjGctJ-1" value="&lt;font style=&quot;font-size: 18px;&quot;&gt;ビット列&lt;/font&gt;" style="rounded=0;whiteSpace=wrap;html=1;textDirection=vertical-lr;strokeColor=none;" vertex="1" parent="1">
          <mxGeometry x="40" y="255" width="40" height="120" as="geometry" />
        </mxCell>
        <mxCell id="G5l_VkCmDjPcZDWjGctJ-15" style="edgeStyle=orthogonalEdgeStyle;rounded=0;orthogonalLoop=1;jettySize=auto;html=1;exitX=1;exitY=0.5;exitDx=0;exitDy=0;entryX=0;entryY=0.5;entryDx=0;entryDy=0;" edge="1" parent="1" source="G5l_VkCmDjPcZDWjGctJ-2" target="G5l_VkCmDjPcZDWjGctJ-3">
          <mxGeometry relative="1" as="geometry" />
        </mxCell>
        <mxCell id="G5l_VkCmDjPcZDWjGctJ-2" value="&lt;font style=&quot;font-size: 18px;&quot;&gt;シンボル割り当て&lt;/font&gt;" style="rounded=0;whiteSpace=wrap;html=1;textDirection=vertical-lr;" vertex="1" parent="1">
          <mxGeometry x="110" y="230" width="40" height="170" as="geometry" />
        </mxCell>
        <mxCell id="G5l_VkCmDjPcZDWjGctJ-3" value="&lt;font style=&quot;font-size: 18px;&quot;&gt;直並列変換&lt;/font&gt;" style="rounded=0;whiteSpace=wrap;html=1;textDirection=vertical-lr;" vertex="1" parent="1">
          <mxGeometry x="180" y="230" width="40" height="170" as="geometry" />
        </mxCell>
        <mxCell id="G5l_VkCmDjPcZDWjGctJ-4" value="&lt;span style=&quot;font-size: 18px;&quot;&gt;逆離散フーリエ変換&lt;/span&gt;" style="rounded=0;whiteSpace=wrap;html=1;textDirection=vertical-lr;" vertex="1" parent="1">
          <mxGeometry x="250" y="230" width="40" height="170" as="geometry" />
        </mxCell>
        <mxCell id="G5l_VkCmDjPcZDWjGctJ-5" value="&lt;span style=&quot;font-size: 18px;&quot;&gt;並直列変換&lt;/span&gt;" style="rounded=0;whiteSpace=wrap;html=1;textDirection=vertical-lr;" vertex="1" parent="1">
          <mxGeometry x="320" y="230" width="40" height="170" as="geometry" />
        </mxCell>
        <mxCell id="G5l_VkCmDjPcZDWjGctJ-36" style="edgeStyle=orthogonalEdgeStyle;rounded=0;orthogonalLoop=1;jettySize=auto;html=1;exitX=0.5;exitY=1;exitDx=0;exitDy=0;entryX=0;entryY=0.5;entryDx=0;entryDy=0;" edge="1" parent="1" source="G5l_VkCmDjPcZDWjGctJ-6" target="G5l_VkCmDjPcZDWjGctJ-9">
          <mxGeometry relative="1" as="geometry" />
        </mxCell>
        <mxCell id="G5l_VkCmDjPcZDWjGctJ-37" style="edgeStyle=orthogonalEdgeStyle;rounded=0;orthogonalLoop=1;jettySize=auto;html=1;exitX=0.5;exitY=0;exitDx=0;exitDy=0;entryX=0;entryY=0.5;entryDx=0;entryDy=0;" edge="1" parent="1" source="G5l_VkCmDjPcZDWjGctJ-6" target="G5l_VkCmDjPcZDWjGctJ-32">
          <mxGeometry relative="1" as="geometry" />
        </mxCell>
        <mxCell id="G5l_VkCmDjPcZDWjGctJ-6" value="&lt;font style=&quot;font-size: 18px;&quot;&gt;連続化&lt;/font&gt;" style="rounded=0;whiteSpace=wrap;html=1;textDirection=vertical-lr;" vertex="1" parent="1">
          <mxGeometry x="390" y="280" width="40" height="70" as="geometry" />
        </mxCell>
        <mxCell id="G5l_VkCmDjPcZDWjGctJ-40" style="edgeStyle=orthogonalEdgeStyle;rounded=0;orthogonalLoop=1;jettySize=auto;html=1;exitX=0.5;exitY=1;exitDx=0;exitDy=0;entryX=0.5;entryY=0;entryDx=0;entryDy=0;" edge="1" parent="1" source="G5l_VkCmDjPcZDWjGctJ-7" target="G5l_VkCmDjPcZDWjGctJ-9">
          <mxGeometry relative="1" as="geometry" />
        </mxCell>
        <mxCell id="G5l_VkCmDjPcZDWjGctJ-7" value="$$\frac{\pi}{2}$$" style="rounded=0;whiteSpace=wrap;html=1;" vertex="1" parent="1">
          <mxGeometry x="470" y="330" width="20" height="35" as="geometry" />
        </mxCell>
        <mxCell id="G5l_VkCmDjPcZDWjGctJ-42" style="edgeStyle=orthogonalEdgeStyle;rounded=0;orthogonalLoop=1;jettySize=auto;html=1;exitX=1;exitY=0.5;exitDx=0;exitDy=0;entryX=0.5;entryY=1;entryDx=0;entryDy=0;" edge="1" parent="1" source="G5l_VkCmDjPcZDWjGctJ-9" target="G5l_VkCmDjPcZDWjGctJ-10">
          <mxGeometry relative="1" as="geometry" />
        </mxCell>
        <mxCell id="G5l_VkCmDjPcZDWjGctJ-9" value="" style="shape=sumEllipse;perimeter=ellipsePerimeter;whiteSpace=wrap;html=1;backgroundOutline=1;" vertex="1" parent="1">
          <mxGeometry x="467.5" y="390" width="25" height="25" as="geometry" />
        </mxCell>
        <mxCell id="G5l_VkCmDjPcZDWjGctJ-43" style="edgeStyle=orthogonalEdgeStyle;rounded=0;orthogonalLoop=1;jettySize=auto;html=1;exitX=1;exitY=0.5;exitDx=0;exitDy=0;entryX=0;entryY=0.5;entryDx=0;entryDy=0;" edge="1" parent="1" source="G5l_VkCmDjPcZDWjGctJ-10" target="G5l_VkCmDjPcZDWjGctJ-12">
          <mxGeometry relative="1" as="geometry" />
        </mxCell>
        <mxCell id="G5l_VkCmDjPcZDWjGctJ-10" value="" style="shape=orEllipse;perimeter=ellipsePerimeter;whiteSpace=wrap;html=1;backgroundOutline=1;" vertex="1" parent="1">
          <mxGeometry x="550" y="310" width="30" height="30" as="geometry" />
        </mxCell>
        <mxCell id="G5l_VkCmDjPcZDWjGctJ-38" style="edgeStyle=orthogonalEdgeStyle;rounded=0;orthogonalLoop=1;jettySize=auto;html=1;exitX=0;exitY=0.5;exitDx=0;exitDy=0;exitPerimeter=0;entryX=0.5;entryY=1;entryDx=0;entryDy=0;" edge="1" parent="1" source="G5l_VkCmDjPcZDWjGctJ-11" target="G5l_VkCmDjPcZDWjGctJ-32">
          <mxGeometry relative="1" as="geometry" />
        </mxCell>
        <mxCell id="G5l_VkCmDjPcZDWjGctJ-11" value="" style="pointerEvents=1;verticalLabelPosition=bottom;shadow=0;dashed=0;align=center;html=1;verticalAlign=top;shape=mxgraph.electrical.signal_sources.source;aspect=fixed;points=[[0.5,0,0],[1,0.5,0],[0.5,1,0],[0,0.5,0]];elSignalType=ac;" vertex="1" parent="1">
          <mxGeometry x="500" y="290" width="30" height="30" as="geometry" />
        </mxCell>
        <mxCell id="G5l_VkCmDjPcZDWjGctJ-44" style="edgeStyle=orthogonalEdgeStyle;rounded=0;orthogonalLoop=1;jettySize=auto;html=1;exitX=1;exitY=0.5;exitDx=0;exitDy=0;entryX=0;entryY=0.5;entryDx=0;entryDy=0;" edge="1" parent="1" source="G5l_VkCmDjPcZDWjGctJ-12" target="G5l_VkCmDjPcZDWjGctJ-13">
          <mxGeometry relative="1" as="geometry" />
        </mxCell>
        <mxCell id="G5l_VkCmDjPcZDWjGctJ-12" value="&lt;span style=&quot;font-size: 18px;&quot;&gt;増幅器&lt;/span&gt;" style="rounded=0;whiteSpace=wrap;html=1;textDirection=vertical-lr;" vertex="1" parent="1">
          <mxGeometry x="600" y="290" width="40" height="70" as="geometry" />
        </mxCell>
        <mxCell id="G5l_VkCmDjPcZDWjGctJ-13" value="&lt;font style=&quot;font-size: 18px;&quot;&gt;伝送路&lt;/font&gt;" style="rounded=0;whiteSpace=wrap;html=1;textDirection=vertical-lr;strokeColor=none;" vertex="1" parent="1">
          <mxGeometry x="670" y="265" width="40" height="120" as="geometry" />
        </mxCell>
        <mxCell id="G5l_VkCmDjPcZDWjGctJ-16" style="edgeStyle=orthogonalEdgeStyle;rounded=0;orthogonalLoop=1;jettySize=auto;html=1;exitX=1;exitY=0.5;exitDx=0;exitDy=0;entryX=0;entryY=0.5;entryDx=0;entryDy=0;" edge="1" parent="1">
          <mxGeometry relative="1" as="geometry">
            <mxPoint x="220" y="250" as="sourcePoint" />
            <mxPoint x="250" y="250" as="targetPoint" />
          </mxGeometry>
        </mxCell>
        <mxCell id="G5l_VkCmDjPcZDWjGctJ-17" style="edgeStyle=orthogonalEdgeStyle;rounded=0;orthogonalLoop=1;jettySize=auto;html=1;exitX=1;exitY=0.5;exitDx=0;exitDy=0;entryX=0;entryY=0.5;entryDx=0;entryDy=0;" edge="1" parent="1">
          <mxGeometry relative="1" as="geometry">
            <mxPoint x="220" y="265" as="sourcePoint" />
            <mxPoint x="250" y="265" as="targetPoint" />
          </mxGeometry>
        </mxCell>
        <mxCell id="G5l_VkCmDjPcZDWjGctJ-18" style="edgeStyle=orthogonalEdgeStyle;rounded=0;orthogonalLoop=1;jettySize=auto;html=1;exitX=1;exitY=0.5;exitDx=0;exitDy=0;entryX=0;entryY=0.5;entryDx=0;entryDy=0;" edge="1" parent="1">
          <mxGeometry relative="1" as="geometry">
            <mxPoint x="220" y="279.77" as="sourcePoint" />
            <mxPoint x="250" y="279.77" as="targetPoint" />
            <Array as="points">
              <mxPoint x="220" y="279.77" />
              <mxPoint x="220" y="279.77" />
            </Array>
          </mxGeometry>
        </mxCell>
        <mxCell id="G5l_VkCmDjPcZDWjGctJ-19" style="edgeStyle=orthogonalEdgeStyle;rounded=0;orthogonalLoop=1;jettySize=auto;html=1;exitX=1;exitY=0.5;exitDx=0;exitDy=0;entryX=0;entryY=0.5;entryDx=0;entryDy=0;" edge="1" parent="1">
          <mxGeometry relative="1" as="geometry">
            <mxPoint x="290" y="250" as="sourcePoint" />
            <mxPoint x="320" y="250" as="targetPoint" />
          </mxGeometry>
        </mxCell>
        <mxCell id="G5l_VkCmDjPcZDWjGctJ-20" style="edgeStyle=orthogonalEdgeStyle;rounded=0;orthogonalLoop=1;jettySize=auto;html=1;exitX=1;exitY=0.5;exitDx=0;exitDy=0;entryX=0;entryY=0.5;entryDx=0;entryDy=0;" edge="1" parent="1">
          <mxGeometry relative="1" as="geometry">
            <mxPoint x="290" y="265" as="sourcePoint" />
            <mxPoint x="320" y="265" as="targetPoint" />
          </mxGeometry>
        </mxCell>
        <mxCell id="G5l_VkCmDjPcZDWjGctJ-21" style="edgeStyle=orthogonalEdgeStyle;rounded=0;orthogonalLoop=1;jettySize=auto;html=1;exitX=1;exitY=0.5;exitDx=0;exitDy=0;entryX=0;entryY=0.5;entryDx=0;entryDy=0;" edge="1" parent="1">
          <mxGeometry relative="1" as="geometry">
            <mxPoint x="290" y="279.77" as="sourcePoint" />
            <mxPoint x="320" y="279.77" as="targetPoint" />
            <Array as="points">
              <mxPoint x="290" y="279.77" />
              <mxPoint x="290" y="279.77" />
            </Array>
          </mxGeometry>
        </mxCell>
        <mxCell id="G5l_VkCmDjPcZDWjGctJ-25" style="edgeStyle=orthogonalEdgeStyle;rounded=0;orthogonalLoop=1;jettySize=auto;html=1;exitX=1;exitY=0.5;exitDx=0;exitDy=0;entryX=0;entryY=0.5;entryDx=0;entryDy=0;" edge="1" parent="1">
          <mxGeometry relative="1" as="geometry">
            <mxPoint x="220" y="350" as="sourcePoint" />
            <mxPoint x="250" y="350" as="targetPoint" />
          </mxGeometry>
        </mxCell>
        <mxCell id="G5l_VkCmDjPcZDWjGctJ-26" style="edgeStyle=orthogonalEdgeStyle;rounded=0;orthogonalLoop=1;jettySize=auto;html=1;exitX=1;exitY=0.5;exitDx=0;exitDy=0;entryX=0;entryY=0.5;entryDx=0;entryDy=0;" edge="1" parent="1">
          <mxGeometry relative="1" as="geometry">
            <mxPoint x="220" y="365" as="sourcePoint" />
            <mxPoint x="250" y="365" as="targetPoint" />
          </mxGeometry>
        </mxCell>
        <mxCell id="G5l_VkCmDjPcZDWjGctJ-27" style="edgeStyle=orthogonalEdgeStyle;rounded=0;orthogonalLoop=1;jettySize=auto;html=1;exitX=1;exitY=0.5;exitDx=0;exitDy=0;entryX=0;entryY=0.5;entryDx=0;entryDy=0;" edge="1" parent="1">
          <mxGeometry relative="1" as="geometry">
            <mxPoint x="220" y="379.77" as="sourcePoint" />
            <mxPoint x="250" y="379.77" as="targetPoint" />
            <Array as="points">
              <mxPoint x="240" y="380" />
              <mxPoint x="240" y="380" />
            </Array>
          </mxGeometry>
        </mxCell>
        <mxCell id="G5l_VkCmDjPcZDWjGctJ-28" style="edgeStyle=orthogonalEdgeStyle;rounded=0;orthogonalLoop=1;jettySize=auto;html=1;exitX=1;exitY=0.5;exitDx=0;exitDy=0;entryX=0;entryY=0.5;entryDx=0;entryDy=0;" edge="1" parent="1">
          <mxGeometry relative="1" as="geometry">
            <mxPoint x="290" y="350" as="sourcePoint" />
            <mxPoint x="320" y="350" as="targetPoint" />
          </mxGeometry>
        </mxCell>
        <mxCell id="G5l_VkCmDjPcZDWjGctJ-29" style="edgeStyle=orthogonalEdgeStyle;rounded=0;orthogonalLoop=1;jettySize=auto;html=1;exitX=1;exitY=0.5;exitDx=0;exitDy=0;entryX=0;entryY=0.5;entryDx=0;entryDy=0;" edge="1" parent="1">
          <mxGeometry relative="1" as="geometry">
            <mxPoint x="290" y="365" as="sourcePoint" />
            <mxPoint x="320" y="365" as="targetPoint" />
          </mxGeometry>
        </mxCell>
        <mxCell id="G5l_VkCmDjPcZDWjGctJ-30" style="edgeStyle=orthogonalEdgeStyle;rounded=0;orthogonalLoop=1;jettySize=auto;html=1;exitX=1;exitY=0.5;exitDx=0;exitDy=0;entryX=0;entryY=0.5;entryDx=0;entryDy=0;" edge="1" parent="1">
          <mxGeometry relative="1" as="geometry">
            <mxPoint x="290" y="379.77" as="sourcePoint" />
            <mxPoint x="320" y="379.77" as="targetPoint" />
            <Array as="points">
              <mxPoint x="310" y="380" />
              <mxPoint x="310" y="380" />
            </Array>
          </mxGeometry>
        </mxCell>
        <mxCell id="G5l_VkCmDjPcZDWjGctJ-31" style="edgeStyle=orthogonalEdgeStyle;rounded=0;orthogonalLoop=1;jettySize=auto;html=1;exitX=1;exitY=0.5;exitDx=0;exitDy=0;entryX=0;entryY=0.5;entryDx=0;entryDy=0;" edge="1" parent="1">
          <mxGeometry relative="1" as="geometry">
            <mxPoint x="360" y="320" as="sourcePoint" />
            <mxPoint x="390" y="320" as="targetPoint" />
            <Array as="points">
              <mxPoint x="380" y="320.23" />
              <mxPoint x="380" y="320.23" />
            </Array>
          </mxGeometry>
        </mxCell>
        <mxCell id="G5l_VkCmDjPcZDWjGctJ-41" style="edgeStyle=orthogonalEdgeStyle;rounded=0;orthogonalLoop=1;jettySize=auto;html=1;exitX=1;exitY=0.5;exitDx=0;exitDy=0;entryX=0.5;entryY=0;entryDx=0;entryDy=0;" edge="1" parent="1" source="G5l_VkCmDjPcZDWjGctJ-32" target="G5l_VkCmDjPcZDWjGctJ-10">
          <mxGeometry relative="1" as="geometry" />
        </mxCell>
        <mxCell id="G5l_VkCmDjPcZDWjGctJ-32" value="" style="shape=sumEllipse;perimeter=ellipsePerimeter;whiteSpace=wrap;html=1;backgroundOutline=1;" vertex="1" parent="1">
          <mxGeometry x="467.5" y="230" width="25" height="25" as="geometry" />
        </mxCell>
        <mxCell id="G5l_VkCmDjPcZDWjGctJ-39" style="edgeStyle=orthogonalEdgeStyle;rounded=0;orthogonalLoop=1;jettySize=auto;html=1;exitX=0;exitY=0.5;exitDx=0;exitDy=0;exitPerimeter=0;entryX=0.5;entryY=0;entryDx=0;entryDy=0;" edge="1" parent="1" source="G5l_VkCmDjPcZDWjGctJ-11" target="G5l_VkCmDjPcZDWjGctJ-7">
          <mxGeometry relative="1" as="geometry">
            <mxPoint x="540" y="319.5" as="sourcePoint" />
            <mxPoint x="490" y="269.5" as="targetPoint" />
          </mxGeometry>
        </mxCell>
        <mxCell id="G5l_VkCmDjPcZDWjGctJ-59" style="edgeStyle=orthogonalEdgeStyle;rounded=0;orthogonalLoop=1;jettySize=auto;html=1;exitX=1;exitY=0.5;exitDx=0;exitDy=0;entryX=0;entryY=0.5;entryDx=0;entryDy=0;" edge="1" parent="1" source="G5l_VkCmDjPcZDWjGctJ-45" target="G5l_VkCmDjPcZDWjGctJ-47">
          <mxGeometry relative="1" as="geometry" />
        </mxCell>
        <mxCell id="G5l_VkCmDjPcZDWjGctJ-60" style="edgeStyle=orthogonalEdgeStyle;rounded=0;orthogonalLoop=1;jettySize=auto;html=1;exitX=1;exitY=0.5;exitDx=0;exitDy=0;entryX=0;entryY=0.5;entryDx=0;entryDy=0;" edge="1" parent="1" source="G5l_VkCmDjPcZDWjGctJ-45" target="G5l_VkCmDjPcZDWjGctJ-46">
          <mxGeometry relative="1" as="geometry" />
        </mxCell>
        <mxCell id="G5l_VkCmDjPcZDWjGctJ-45" value="&lt;font style=&quot;font-size: 18px;&quot;&gt;伝送路&lt;/font&gt;" style="rounded=0;whiteSpace=wrap;html=1;textDirection=vertical-lr;strokeColor=none;" vertex="1" parent="1">
          <mxGeometry x="40" y="480" width="40" height="120" as="geometry" />
        </mxCell>
        <mxCell id="G5l_VkCmDjPcZDWjGctJ-64" style="edgeStyle=orthogonalEdgeStyle;rounded=0;orthogonalLoop=1;jettySize=auto;html=1;exitX=1;exitY=0.5;exitDx=0;exitDy=0;entryX=0;entryY=0.5;entryDx=0;entryDy=0;" edge="1" parent="1" source="G5l_VkCmDjPcZDWjGctJ-46" target="G5l_VkCmDjPcZDWjGctJ-51">
          <mxGeometry relative="1" as="geometry">
            <mxPoint x="210" y="482.95238095238096" as="targetPoint" />
          </mxGeometry>
        </mxCell>
        <mxCell id="G5l_VkCmDjPcZDWjGctJ-46" value="" style="shape=sumEllipse;perimeter=ellipsePerimeter;whiteSpace=wrap;html=1;backgroundOutline=1;" vertex="1" parent="1">
          <mxGeometry x="140" y="470.5" width="25" height="25" as="geometry" />
        </mxCell>
        <mxCell id="G5l_VkCmDjPcZDWjGctJ-63" style="edgeStyle=orthogonalEdgeStyle;rounded=0;orthogonalLoop=1;jettySize=auto;html=1;exitX=1;exitY=0.5;exitDx=0;exitDy=0;entryX=0;entryY=0.5;entryDx=0;entryDy=0;" edge="1" parent="1" source="G5l_VkCmDjPcZDWjGctJ-47" target="G5l_VkCmDjPcZDWjGctJ-52">
          <mxGeometry relative="1" as="geometry" />
        </mxCell>
        <mxCell id="G5l_VkCmDjPcZDWjGctJ-47" value="" style="shape=sumEllipse;perimeter=ellipsePerimeter;whiteSpace=wrap;html=1;backgroundOutline=1;" vertex="1" parent="1">
          <mxGeometry x="140" y="584.5" width="25" height="25" as="geometry" />
        </mxCell>
        <mxCell id="G5l_VkCmDjPcZDWjGctJ-61" style="edgeStyle=orthogonalEdgeStyle;rounded=0;orthogonalLoop=1;jettySize=auto;html=1;exitX=0;exitY=0.5;exitDx=0;exitDy=0;exitPerimeter=0;" edge="1" parent="1" source="G5l_VkCmDjPcZDWjGctJ-48" target="G5l_VkCmDjPcZDWjGctJ-49">
          <mxGeometry relative="1" as="geometry" />
        </mxCell>
        <mxCell id="G5l_VkCmDjPcZDWjGctJ-62" style="edgeStyle=orthogonalEdgeStyle;rounded=0;orthogonalLoop=1;jettySize=auto;html=1;exitX=0;exitY=0.5;exitDx=0;exitDy=0;exitPerimeter=0;" edge="1" parent="1" source="G5l_VkCmDjPcZDWjGctJ-48" target="G5l_VkCmDjPcZDWjGctJ-46">
          <mxGeometry relative="1" as="geometry" />
        </mxCell>
        <mxCell id="G5l_VkCmDjPcZDWjGctJ-48" value="" style="pointerEvents=1;verticalLabelPosition=bottom;shadow=0;dashed=0;align=center;html=1;verticalAlign=top;shape=mxgraph.electrical.signal_sources.source;aspect=fixed;points=[[0.5,0,0],[1,0.5,0],[0.5,1,0],[0,0.5,0]];elSignalType=ac;" vertex="1" parent="1">
          <mxGeometry x="180" y="505" width="30" height="30" as="geometry" />
        </mxCell>
        <mxCell id="G5l_VkCmDjPcZDWjGctJ-49" value="$$\frac{\pi}{2}$$" style="rounded=0;whiteSpace=wrap;html=1;" vertex="1" parent="1">
          <mxGeometry x="142.5" y="540" width="20" height="35" as="geometry" />
        </mxCell>
        <mxCell id="G5l_VkCmDjPcZDWjGctJ-65" style="edgeStyle=orthogonalEdgeStyle;rounded=0;orthogonalLoop=1;jettySize=auto;html=1;exitX=1;exitY=0.5;exitDx=0;exitDy=0;entryX=0.5;entryY=0;entryDx=0;entryDy=0;" edge="1" parent="1" source="G5l_VkCmDjPcZDWjGctJ-51" target="G5l_VkCmDjPcZDWjGctJ-53">
          <mxGeometry relative="1" as="geometry" />
        </mxCell>
        <mxCell id="G5l_VkCmDjPcZDWjGctJ-51" value="&lt;font style=&quot;font-size: 18px;&quot;&gt;LPF&lt;/font&gt;" style="rounded=0;whiteSpace=wrap;html=1;" vertex="1" parent="1">
          <mxGeometry x="220" y="463" width="50" height="40" as="geometry" />
        </mxCell>
        <mxCell id="G5l_VkCmDjPcZDWjGctJ-66" style="edgeStyle=orthogonalEdgeStyle;rounded=0;orthogonalLoop=1;jettySize=auto;html=1;exitX=1;exitY=0.5;exitDx=0;exitDy=0;entryX=0.5;entryY=1;entryDx=0;entryDy=0;" edge="1" parent="1" source="G5l_VkCmDjPcZDWjGctJ-52" target="G5l_VkCmDjPcZDWjGctJ-53">
          <mxGeometry relative="1" as="geometry" />
        </mxCell>
        <mxCell id="G5l_VkCmDjPcZDWjGctJ-52" value="&lt;font style=&quot;font-size: 18px;&quot;&gt;LPF&lt;/font&gt;" style="rounded=0;whiteSpace=wrap;html=1;" vertex="1" parent="1">
          <mxGeometry x="220" y="577" width="50" height="40" as="geometry" />
        </mxCell>
        <mxCell id="G5l_VkCmDjPcZDWjGctJ-68" style="edgeStyle=orthogonalEdgeStyle;rounded=0;orthogonalLoop=1;jettySize=auto;html=1;entryX=0;entryY=0.5;entryDx=0;entryDy=0;" edge="1" parent="1" source="G5l_VkCmDjPcZDWjGctJ-53" target="G5l_VkCmDjPcZDWjGctJ-54">
          <mxGeometry relative="1" as="geometry" />
        </mxCell>
        <mxCell id="G5l_VkCmDjPcZDWjGctJ-53" value="&lt;span style=&quot;font-size: 18px;&quot;&gt;標本化&lt;/span&gt;" style="rounded=0;whiteSpace=wrap;html=1;textDirection=vertical-lr;" vertex="1" parent="1">
          <mxGeometry x="290" y="507" width="40" height="70" as="geometry" />
        </mxCell>
        <mxCell id="G5l_VkCmDjPcZDWjGctJ-54" value="&lt;font style=&quot;font-size: 18px;&quot;&gt;直並列変換&lt;/font&gt;" style="rounded=0;whiteSpace=wrap;html=1;textDirection=vertical-lr;" vertex="1" parent="1">
          <mxGeometry x="360" y="457" width="40" height="170" as="geometry" />
        </mxCell>
        <mxCell id="G5l_VkCmDjPcZDWjGctJ-55" value="&lt;span style=&quot;font-size: 18px;&quot;&gt;離散フーリエ変換&lt;/span&gt;" style="rounded=0;whiteSpace=wrap;html=1;textDirection=vertical-lr;" vertex="1" parent="1">
          <mxGeometry x="430" y="457" width="40" height="170" as="geometry" />
        </mxCell>
        <mxCell id="G5l_VkCmDjPcZDWjGctJ-93" style="edgeStyle=orthogonalEdgeStyle;rounded=0;orthogonalLoop=1;jettySize=auto;html=1;" edge="1" parent="1" source="G5l_VkCmDjPcZDWjGctJ-56" target="G5l_VkCmDjPcZDWjGctJ-57">
          <mxGeometry relative="1" as="geometry" />
        </mxCell>
        <mxCell id="G5l_VkCmDjPcZDWjGctJ-56" value="&lt;span style=&quot;font-size: 18px;&quot;&gt;並直列変換&lt;/span&gt;" style="rounded=0;whiteSpace=wrap;html=1;textDirection=vertical-lr;" vertex="1" parent="1">
          <mxGeometry x="500" y="457" width="40" height="170" as="geometry" />
        </mxCell>
        <mxCell id="G5l_VkCmDjPcZDWjGctJ-94" style="edgeStyle=orthogonalEdgeStyle;rounded=0;orthogonalLoop=1;jettySize=auto;html=1;exitX=1;exitY=0.5;exitDx=0;exitDy=0;entryX=0;entryY=0.5;entryDx=0;entryDy=0;" edge="1" parent="1" source="G5l_VkCmDjPcZDWjGctJ-57" target="G5l_VkCmDjPcZDWjGctJ-58">
          <mxGeometry relative="1" as="geometry" />
        </mxCell>
        <mxCell id="G5l_VkCmDjPcZDWjGctJ-57" value="&lt;span style=&quot;font-size: 18px;&quot;&gt;判定&lt;/span&gt;" style="rounded=0;whiteSpace=wrap;html=1;textDirection=vertical-lr;" vertex="1" parent="1">
          <mxGeometry x="570" y="513.25" width="40" height="57.5" as="geometry" />
        </mxCell>
        <mxCell id="G5l_VkCmDjPcZDWjGctJ-58" value="&lt;font style=&quot;font-size: 18px;&quot;&gt;ビット列&lt;/font&gt;" style="rounded=0;whiteSpace=wrap;html=1;textDirection=vertical-lr;strokeColor=none;" vertex="1" parent="1">
          <mxGeometry x="630" y="482" width="40" height="120" as="geometry" />
        </mxCell>
        <mxCell id="G5l_VkCmDjPcZDWjGctJ-69" value="" style="endArrow=none;dashed=1;html=1;dashPattern=1 3;strokeWidth=4;rounded=0;fontSize=15;" edge="1" parent="1">
          <mxGeometry width="50" height="50" relative="1" as="geometry">
            <mxPoint x="234" y="340" as="sourcePoint" />
            <mxPoint x="234" y="280" as="targetPoint" />
          </mxGeometry>
        </mxCell>
        <mxCell id="G5l_VkCmDjPcZDWjGctJ-70" value="" style="endArrow=none;dashed=1;html=1;dashPattern=1 3;strokeWidth=4;rounded=0;fontSize=15;" edge="1" parent="1">
          <mxGeometry width="50" height="50" relative="1" as="geometry">
            <mxPoint x="305" y="341" as="sourcePoint" />
            <mxPoint x="305" y="281" as="targetPoint" />
          </mxGeometry>
        </mxCell>
        <mxCell id="G5l_VkCmDjPcZDWjGctJ-78" style="edgeStyle=orthogonalEdgeStyle;rounded=0;orthogonalLoop=1;jettySize=auto;html=1;exitX=1;exitY=0.5;exitDx=0;exitDy=0;entryX=0;entryY=0.5;entryDx=0;entryDy=0;" edge="1" parent="1">
          <mxGeometry relative="1" as="geometry">
            <mxPoint x="400" y="479.4" as="sourcePoint" />
            <mxPoint x="430" y="479.4" as="targetPoint" />
          </mxGeometry>
        </mxCell>
        <mxCell id="G5l_VkCmDjPcZDWjGctJ-79" style="edgeStyle=orthogonalEdgeStyle;rounded=0;orthogonalLoop=1;jettySize=auto;html=1;exitX=1;exitY=0.5;exitDx=0;exitDy=0;entryX=0;entryY=0.5;entryDx=0;entryDy=0;" edge="1" parent="1">
          <mxGeometry relative="1" as="geometry">
            <mxPoint x="400" y="494.4" as="sourcePoint" />
            <mxPoint x="430" y="494.4" as="targetPoint" />
          </mxGeometry>
        </mxCell>
        <mxCell id="G5l_VkCmDjPcZDWjGctJ-80" style="edgeStyle=orthogonalEdgeStyle;rounded=0;orthogonalLoop=1;jettySize=auto;html=1;exitX=1;exitY=0.5;exitDx=0;exitDy=0;entryX=0;entryY=0.5;entryDx=0;entryDy=0;" edge="1" parent="1">
          <mxGeometry relative="1" as="geometry">
            <mxPoint x="400" y="509.16999999999996" as="sourcePoint" />
            <mxPoint x="430" y="509.16999999999996" as="targetPoint" />
            <Array as="points">
              <mxPoint x="400" y="509.16999999999996" />
              <mxPoint x="400" y="509.16999999999996" />
            </Array>
          </mxGeometry>
        </mxCell>
        <mxCell id="G5l_VkCmDjPcZDWjGctJ-81" style="edgeStyle=orthogonalEdgeStyle;rounded=0;orthogonalLoop=1;jettySize=auto;html=1;exitX=1;exitY=0.5;exitDx=0;exitDy=0;entryX=0;entryY=0.5;entryDx=0;entryDy=0;" edge="1" parent="1">
          <mxGeometry relative="1" as="geometry">
            <mxPoint x="400" y="579.4" as="sourcePoint" />
            <mxPoint x="430" y="579.4" as="targetPoint" />
          </mxGeometry>
        </mxCell>
        <mxCell id="G5l_VkCmDjPcZDWjGctJ-82" style="edgeStyle=orthogonalEdgeStyle;rounded=0;orthogonalLoop=1;jettySize=auto;html=1;exitX=1;exitY=0.5;exitDx=0;exitDy=0;entryX=0;entryY=0.5;entryDx=0;entryDy=0;" edge="1" parent="1">
          <mxGeometry relative="1" as="geometry">
            <mxPoint x="400" y="594.4" as="sourcePoint" />
            <mxPoint x="430" y="594.4" as="targetPoint" />
          </mxGeometry>
        </mxCell>
        <mxCell id="G5l_VkCmDjPcZDWjGctJ-83" style="edgeStyle=orthogonalEdgeStyle;rounded=0;orthogonalLoop=1;jettySize=auto;html=1;exitX=1;exitY=0.5;exitDx=0;exitDy=0;entryX=0;entryY=0.5;entryDx=0;entryDy=0;" edge="1" parent="1">
          <mxGeometry relative="1" as="geometry">
            <mxPoint x="400" y="609.17" as="sourcePoint" />
            <mxPoint x="430" y="609.17" as="targetPoint" />
            <Array as="points">
              <mxPoint x="420" y="609.4" />
              <mxPoint x="420" y="609.4" />
            </Array>
          </mxGeometry>
        </mxCell>
        <mxCell id="G5l_VkCmDjPcZDWjGctJ-84" value="" style="endArrow=none;dashed=1;html=1;dashPattern=1 3;strokeWidth=4;rounded=0;fontSize=15;" edge="1" parent="1">
          <mxGeometry width="50" height="50" relative="1" as="geometry">
            <mxPoint x="414" y="569.4" as="sourcePoint" />
            <mxPoint x="414" y="509.4" as="targetPoint" />
          </mxGeometry>
        </mxCell>
        <mxCell id="G5l_VkCmDjPcZDWjGctJ-85" style="edgeStyle=orthogonalEdgeStyle;rounded=0;orthogonalLoop=1;jettySize=auto;html=1;exitX=1;exitY=0.5;exitDx=0;exitDy=0;entryX=0;entryY=0.5;entryDx=0;entryDy=0;" edge="1" parent="1">
          <mxGeometry relative="1" as="geometry">
            <mxPoint x="470" y="479.45" as="sourcePoint" />
            <mxPoint x="500" y="479.45" as="targetPoint" />
          </mxGeometry>
        </mxCell>
        <mxCell id="G5l_VkCmDjPcZDWjGctJ-86" style="edgeStyle=orthogonalEdgeStyle;rounded=0;orthogonalLoop=1;jettySize=auto;html=1;exitX=1;exitY=0.5;exitDx=0;exitDy=0;entryX=0;entryY=0.5;entryDx=0;entryDy=0;" edge="1" parent="1">
          <mxGeometry relative="1" as="geometry">
            <mxPoint x="470" y="494.45" as="sourcePoint" />
            <mxPoint x="500" y="494.45" as="targetPoint" />
          </mxGeometry>
        </mxCell>
        <mxCell id="G5l_VkCmDjPcZDWjGctJ-87" style="edgeStyle=orthogonalEdgeStyle;rounded=0;orthogonalLoop=1;jettySize=auto;html=1;exitX=1;exitY=0.5;exitDx=0;exitDy=0;entryX=0;entryY=0.5;entryDx=0;entryDy=0;" edge="1" parent="1">
          <mxGeometry relative="1" as="geometry">
            <mxPoint x="470" y="509.21999999999997" as="sourcePoint" />
            <mxPoint x="500" y="509.21999999999997" as="targetPoint" />
            <Array as="points">
              <mxPoint x="470" y="509.21999999999997" />
              <mxPoint x="470" y="509.21999999999997" />
            </Array>
          </mxGeometry>
        </mxCell>
        <mxCell id="G5l_VkCmDjPcZDWjGctJ-88" style="edgeStyle=orthogonalEdgeStyle;rounded=0;orthogonalLoop=1;jettySize=auto;html=1;exitX=1;exitY=0.5;exitDx=0;exitDy=0;entryX=0;entryY=0.5;entryDx=0;entryDy=0;" edge="1" parent="1">
          <mxGeometry relative="1" as="geometry">
            <mxPoint x="470" y="579.4499999999999" as="sourcePoint" />
            <mxPoint x="500" y="579.4499999999999" as="targetPoint" />
          </mxGeometry>
        </mxCell>
        <mxCell id="G5l_VkCmDjPcZDWjGctJ-89" style="edgeStyle=orthogonalEdgeStyle;rounded=0;orthogonalLoop=1;jettySize=auto;html=1;exitX=1;exitY=0.5;exitDx=0;exitDy=0;entryX=0;entryY=0.5;entryDx=0;entryDy=0;" edge="1" parent="1">
          <mxGeometry relative="1" as="geometry">
            <mxPoint x="470" y="594.4499999999999" as="sourcePoint" />
            <mxPoint x="500" y="594.4499999999999" as="targetPoint" />
          </mxGeometry>
        </mxCell>
        <mxCell id="G5l_VkCmDjPcZDWjGctJ-90" style="edgeStyle=orthogonalEdgeStyle;rounded=0;orthogonalLoop=1;jettySize=auto;html=1;exitX=1;exitY=0.5;exitDx=0;exitDy=0;entryX=0;entryY=0.5;entryDx=0;entryDy=0;" edge="1" parent="1">
          <mxGeometry relative="1" as="geometry">
            <mxPoint x="470" y="609.2199999999999" as="sourcePoint" />
            <mxPoint x="500" y="609.2199999999999" as="targetPoint" />
            <Array as="points">
              <mxPoint x="490" y="609.4499999999999" />
              <mxPoint x="490" y="609.4499999999999" />
            </Array>
          </mxGeometry>
        </mxCell>
        <mxCell id="G5l_VkCmDjPcZDWjGctJ-91" value="" style="endArrow=none;dashed=1;html=1;dashPattern=1 3;strokeWidth=4;rounded=0;fontSize=15;" edge="1" parent="1">
          <mxGeometry width="50" height="50" relative="1" as="geometry">
            <mxPoint x="484" y="569.4499999999999" as="sourcePoint" />
            <mxPoint x="484" y="509.45" as="targetPoint" />
          </mxGeometry>
        </mxCell>
      </root>
    </mxGraphModel>
  </diagram>
</mxfile>
